<?xml version="1.0" encoding="UTF-8" standalone="no"?>
<!DOCTYPE svg PUBLIC "-//W3C//DTD SVG 1.1//EN" "http://www.w3.org/Graphics/SVG/1.1/DTD/svg11.dtd">
<!-- Generated by Microsoft Visio, SVG Export me.svg Page-1 -->
<svg xmlns="http://www.w3.org/2000/svg" xmlns:xlink="http://www.w3.org/1999/xlink" xmlns:ev="http://www.w3.org/2001/xml-events"
		xmlns:v="http://schemas.microsoft.com/visio/2003/SVGExtensions/" width="3.26591in" height="3.61139in"
		viewBox="0 0 235.145 260.02" xml:space="preserve" color-interpolation-filters="sRGB" class="st4">
	<v:documentProperties v:langID="2052" v:metric="true" v:viewMarkup="false">
		<v:userDefs>
			<v:ud v:nameU="msvNoAutoConnect" v:val="VT0(1):26"/>
		</v:userDefs>
	</v:documentProperties>

	<style type="text/css">
	<![CDATA[
		.st1 {fill:#ffffff;stroke:#000000;stroke-linecap:round;stroke-linejoin:round;stroke-width:0.72}
		.st2 {fill:none;stroke:none;stroke-linecap:round;stroke-linejoin:round;stroke-width:0.75;visibility:hidden}
		.st3 {fill:#000000;stroke:#000000;stroke-linecap:round;stroke-linejoin:round;stroke-width:0.75}
		.st4 {fill:none;fill-rule:evenodd;font-size:12px;overflow:visible;stroke-linecap:square;stroke-miterlimit:3}
	]]>
	</style>

	<g v:mID="0" v:index="1" v:groupContext="foregroundPage">
		<title>Page-1</title>
		<v:pageProperties v:drawingScale="0.0393701" v:pageScale="0.0393701" v:drawingUnits="24" v:shadowOffsetX="8.50394"
				v:shadowOffsetY="-8.50394"/>
		<g id="group5-1" transform="translate(8.73354,-23.9817)" v:mID="5" v:groupContext="group">
			<v:userDefs>
				<v:ud v:nameU="visVersion" v:val="VT0(15):26"/>
			</v:userDefs>
			<title>Square box</title>
			<g id="shape6-2" v:mID="6" v:groupContext="shape">
				<title>Sheet.6</title>
				<path d="M196.23 260.02 A21.8038 21.8038 -180 0 0 218.04 238.22 L218.04 63.79 A21.8038 21.8038 -180 0 0 196.23 41.98
							 L21.8 41.98 A21.8038 21.8038 -180 0 0 0 63.79 L0 238.22 A21.8038 21.8038 -180 0 0 21.8 260.02 L196.23
							 260.02 Z" class="st1"/>
			</g>
			<g id="shape7-4" v:mID="7" v:groupContext="shape" transform="translate(0,25.2346)">
				<title>Sheet.7</title>
				<rect x="0" y="234.785" width="218.038" height="25.2346" class="st2"/>
			</g>
		</g>
		<g id="group12-6" transform="translate(49.6157,-64.8639)" v:mID="12" v:groupContext="group">
			<v:custProps>
				<v:cp v:nameU="Name" v:lbl="Name" v:prompt="" v:type="0" v:format="" v:sortKey="" v:invis="false" v:ask="false"
						v:langID="1033" v:cal="0"/>
				<v:cp v:nameU="Location" v:lbl="Location" v:prompt="" v:type="0" v:format="" v:sortKey="" v:invis="false"
						v:ask="false" v:langID="1033" v:cal="0"/>
				<v:cp v:nameU="Building" v:lbl="Building" v:prompt="" v:type="0" v:format="" v:sortKey="" v:invis="false"
						v:ask="false" v:langID="1033" v:cal="0"/>
				<v:cp v:nameU="Room" v:lbl="Room" v:prompt="" v:type="0" v:format="" v:sortKey="" v:invis="false" v:ask="false"
						v:langID="1033" v:cal="0"/>
				<v:cp v:nameU="Department" v:lbl="Department" v:prompt="" v:type="0" v:format="" v:sortKey="" v:invis="false"
						v:ask="false" v:langID="1033" v:cal="0"/>
				<v:cp v:nameU="ShapeClass" v:lbl="ShapeClass" v:prompt="" v:type="0" v:format="" v:sortKey="" v:invis="true"
						v:ask="false" v:langID="1033" v:cal="0" v:val="VT4(Connectivity)"/>
				<v:cp v:nameU="ShapeType" v:lbl="ShapeType" v:prompt="" v:type="0" v:format="" v:sortKey="" v:invis="true"
						v:ask="false" v:langID="1033" v:cal="0" v:val="VT4(User)"/>
			</v:custProps>
			<v:userDefs>
				<v:ud v:nameU="visVersion" v:prompt="" v:val="VT0(15):26"/>
				<v:ud v:nameU="ShapeClass" v:prompt="" v:val="VT0(5):26"/>
				<v:ud v:nameU="SolSH" v:prompt="" v:val="VT15({BF0433D9-CD73-4EB5-8390-8653BE590246}):41"/>
				<v:ud v:nameU="visLegendShape" v:prompt="" v:val="VT0(2):26"/>
			</v:userDefs>
			<title>User</title>
			<g id="shape13-7" v:mID="13" v:groupContext="shape" transform="translate(34.7241,0)">
				<title>Sheet.13</title>
				<path d="M50.56 140.69 A16.9414 16.9414 -180 1 0 16.68 140.69 A16.9414 16.9414 -180 1 0 50.56 140.69 ZM53.04 162.2
							 L13.79 162.2 C6.18 162.2 0 168.39 0 175.99 L0 224.07 L10.74 224.07 L10.74 196.09 L14.33 196.09 L14.33
							 260.02 L31.82 260.02 L31.82 231.45 C31.82 230.45 32.63 229.65 33.62 229.65 C34.61 229.65 35.41 230.45
							 35.41 231.45 L35.41 260.02 L53.92 260.02 L53.92 195.98 L57.51 195.98 L57.51 224.07 L66.83 224.07 L66.83
							 175.99 C66.83 168.39 60.64 162.2 53.04 162.2 Z" class="st3"/>
			</g>
		</g>
	</g>
</svg>
