<?xml version="1.0" encoding="UTF-8" standalone="no"?>
<!DOCTYPE svg PUBLIC "-//W3C//DTD SVG 1.1//EN" "http://www.w3.org/Graphics/SVG/1.1/DTD/svg11.dtd">
<!-- Generated by Microsoft Visio, SVG Export other.svg Page-1 -->
<svg xmlns="http://www.w3.org/2000/svg" xmlns:xlink="http://www.w3.org/1999/xlink" xmlns:ev="http://www.w3.org/2001/xml-events"
		xmlns:v="http://schemas.microsoft.com/visio/2003/SVGExtensions/" width="3.93701in" height="3.93701in"
		viewBox="0 0 283.465 283.465" xml:space="preserve" color-interpolation-filters="sRGB" class="st5">
	<v:documentProperties v:langID="2052" v:metric="true" v:viewMarkup="false">
		<v:userDefs>
			<v:ud v:nameU="msvNoAutoConnect" v:val="VT0(1):26"/>
		</v:userDefs>
	</v:documentProperties>

	<style type="text/css">
	<![CDATA[
		.st1 {fill:#ffffff;stroke:#000000;stroke-linecap:round;stroke-linejoin:round;stroke-width:0.72}
		.st2 {fill:none;stroke:none;stroke-linecap:round;stroke-linejoin:round;stroke-width:0.75;visibility:hidden}
		.st3 {fill:#000000;stroke:#000000;stroke-linecap:round;stroke-linejoin:round;stroke-width:0.75}
		.st4 {fill:#ffffff;stroke:#000000;stroke-linecap:round;stroke-linejoin:round;stroke-width:0.75}
		.st5 {fill:none;fill-rule:evenodd;font-size:12px;overflow:visible;stroke-linecap:square;stroke-miterlimit:3}
	]]>
	</style>

	<g v:mID="0" v:index="1" v:groupContext="foregroundPage">
		<title>Page-1</title>
		<v:pageProperties v:drawingScale="0.0393701" v:pageScale="0.0393701" v:drawingUnits="24" v:shadowOffsetX="8.50394"
				v:shadowOffsetY="-8.50394"/>
		<g id="group5-1" transform="translate(7.08661,-7.08661)" v:mID="5" v:groupContext="group">
			<v:userDefs>
				<v:ud v:nameU="visVersion" v:val="VT0(15):26"/>
			</v:userDefs>
			<title>Square box</title>
			<g id="shape6-2" v:mID="6" v:groupContext="shape">
				<title>Sheet.6</title>
				<path d="M242.36 283.46 A26.9291 26.9291 -180 0 0 269.29 256.54 L269.29 41.1 A26.9291 26.9291 -180 0 0 242.36 14.17
							 L26.93 14.17 A26.9291 26.9291 -180 0 0 0 41.1 L0 256.54 A26.9291 26.9291 -180 0 0 26.93 283.46 L242.36
							 283.46 Z" class="st1"/>
			</g>
			<g id="shape7-4" v:mID="7" v:groupContext="shape" transform="translate(0,25.2346)">
				<title>Sheet.7</title>
				<rect x="0" y="258.23" width="269.291" height="25.2346" class="st2"/>
			</g>
		</g>
		<g id="group18-6" transform="translate(13.0313,-57.5787)" v:mID="18" v:groupContext="group">
			<title>Sheet.18</title>
			<g id="group12-7" v:mID="12" v:groupContext="group">
				<v:custProps>
					<v:cp v:nameU="Name" v:lbl="Name" v:prompt="" v:type="0" v:format="" v:sortKey="" v:invis="false" v:ask="false"
							v:langID="1033" v:cal="0"/>
					<v:cp v:nameU="Location" v:lbl="Location" v:prompt="" v:type="0" v:format="" v:sortKey="" v:invis="false"
							v:ask="false" v:langID="1033" v:cal="0"/>
					<v:cp v:nameU="Building" v:lbl="Building" v:prompt="" v:type="0" v:format="" v:sortKey="" v:invis="false"
							v:ask="false" v:langID="1033" v:cal="0"/>
					<v:cp v:nameU="Room" v:lbl="Room" v:prompt="" v:type="0" v:format="" v:sortKey="" v:invis="false" v:ask="false"
							v:langID="1033" v:cal="0"/>
					<v:cp v:nameU="Department" v:lbl="Department" v:prompt="" v:type="0" v:format="" v:sortKey="" v:invis="false"
							v:ask="false" v:langID="1033" v:cal="0"/>
					<v:cp v:nameU="ShapeClass" v:lbl="ShapeClass" v:prompt="" v:type="0" v:format="" v:sortKey="" v:invis="true"
							v:ask="false" v:langID="1033" v:cal="0" v:val="VT4(Connectivity)"/>
					<v:cp v:nameU="ShapeType" v:lbl="ShapeType" v:prompt="" v:type="0" v:format="" v:sortKey="" v:invis="true"
							v:ask="false" v:langID="1033" v:cal="0" v:val="VT4(User)"/>
				</v:custProps>
				<v:userDefs>
					<v:ud v:nameU="visVersion" v:prompt="" v:val="VT0(15):26"/>
					<v:ud v:nameU="ShapeClass" v:prompt="" v:val="VT0(5):26"/>
					<v:ud v:nameU="SolSH" v:prompt="" v:val="VT15({BF0433D9-CD73-4EB5-8390-8653BE590246}):41"/>
					<v:ud v:nameU="visLegendShape" v:prompt="" v:val="VT0(2):26"/>
				</v:userDefs>
				<title>User</title>
				<g id="shape13-8" v:mID="13" v:groupContext="shape" transform="translate(42.8865,0)">
					<title>Sheet.13</title>
					<path d="M62.45 136.08 A20.9238 20.9238 -180 1 0 20.6 136.08 A20.9238 20.9238 -180 1 0 62.45 136.08 ZM65.51 162.65
								 L17.03 162.65 C7.64 162.65 0 170.29 0 179.68 L0 239.07 L13.27 239.07 L13.27 204.51 L17.7 204.51
								 L17.7 283.46 L39.31 283.46 L39.31 248.17 C39.31 246.95 40.3 245.96 41.52 245.96 C42.74 245.96 43.74
								 246.95 43.74 248.17 L43.74 283.46 L66.6 283.46 L66.6 204.38 L71.03 204.38 L71.03 239.07 L82.53 239.07
								 L82.53 179.68 C82.53 170.29 74.9 162.65 65.51 162.65 Z" class="st3"/>
				</g>
			</g>
			<g id="group16-10" transform="translate(89.0949,-5.68434E-014)" v:mID="16" v:groupContext="group">
				<v:custProps>
					<v:cp v:nameU="Name" v:lbl="Name" v:prompt="" v:type="0" v:format="" v:sortKey="" v:invis="false" v:ask="false"
							v:langID="1033" v:cal="0"/>
					<v:cp v:nameU="Location" v:lbl="Location" v:prompt="" v:type="0" v:format="" v:sortKey="" v:invis="false"
							v:ask="false" v:langID="1033" v:cal="0"/>
					<v:cp v:nameU="Building" v:lbl="Building" v:prompt="" v:type="0" v:format="" v:sortKey="" v:invis="false"
							v:ask="false" v:langID="1033" v:cal="0"/>
					<v:cp v:nameU="Room" v:lbl="Room" v:prompt="" v:type="0" v:format="" v:sortKey="" v:invis="false" v:ask="false"
							v:langID="1033" v:cal="0"/>
					<v:cp v:nameU="Department" v:lbl="Department" v:prompt="" v:type="0" v:format="" v:sortKey="" v:invis="false"
							v:ask="false" v:langID="1033" v:cal="0"/>
					<v:cp v:nameU="ShapeClass" v:lbl="ShapeClass" v:prompt="" v:type="0" v:format="" v:sortKey="" v:invis="true"
							v:ask="false" v:langID="1033" v:cal="0" v:val="VT4(Connectivity)"/>
					<v:cp v:nameU="ShapeType" v:lbl="ShapeType" v:prompt="" v:type="0" v:format="" v:sortKey="" v:invis="true"
							v:ask="false" v:langID="1033" v:cal="0" v:val="VT4(User)"/>
				</v:custProps>
				<v:userDefs>
					<v:ud v:nameU="visVersion" v:prompt="" v:val="VT0(15):26"/>
					<v:ud v:nameU="ShapeClass" v:prompt="" v:val="VT0(5):26"/>
					<v:ud v:nameU="SolSH" v:prompt="" v:val="VT15({BF0433D9-CD73-4EB5-8390-8653BE590246}):41"/>
					<v:ud v:nameU="visLegendShape" v:prompt="" v:val="VT0(2):26"/>
				</v:userDefs>
				<title>User.16</title>
				<g id="shape17-11" v:mID="17" v:groupContext="shape" transform="translate(42.8865,0)">
					<title>Sheet.17</title>
					<path d="M62.45 136.08 A20.9238 20.9238 -180 1 0 20.6 136.08 A20.9238 20.9238 -180 1 0 62.45 136.08 ZM65.51 162.65
								 L17.03 162.65 C7.64 162.65 0 170.29 0 179.68 L0 239.07 L13.27 239.07 L13.27 204.51 L17.7 204.51
								 L17.7 283.46 L39.31 283.46 L39.31 248.17 C39.31 246.95 40.3 245.96 41.52 245.96 C42.74 245.96 43.74
								 246.95 43.74 248.17 L43.74 283.46 L66.6 283.46 L66.6 204.38 L71.03 204.38 L71.03 239.07 L82.53 239.07
								 L82.53 179.68 C82.53 170.29 74.9 162.65 65.51 162.65 Z" class="st4"/>
				</g>
			</g>
		</g>
	</g>
</svg>
